<?xml version="1.0" encoding="UTF-8" standalone="no"?> <svg xmlns="http://www.w3.org/2000/svg" width="48" height="48" viewBox="0 0 48 48">
  <defs>
    <style>
      .a {
        fill: #d3d4ed;
      }
    </style>
  </defs>
  <title>27 Question</title>
  <path class="a" d="M24,0A24,24,0,1,0,48,24,24,24,0,0,0,24,0Zm0,38a2,2,0,1,1,2-2A2,2,0,0,1,24,38Zm3.15-11.6A1.7,1.7,0,0,0,26,27.92V29a2,2,0,0,1-4,0V27.92a5.68,5.68,0,0,1,3.67-5.24,4.47,4.47,0,0,0,2.83-4.25A4.58,4.58,0,0,0,24.06,14a4.4,4.4,0,0,0-3.22,1.3,4.48,4.48,0,0,0-1.34,3.2,2,2,0,0,1-4,0A8.5,8.5,0,0,1,24,10h.12a8.5,8.5,0,0,1,3,16.4Z"/>
</svg>
